<mxfile host="app.diagrams.net" modified="2024-03-04T13:46:47.460Z" agent="Mozilla/5.0 (Windows NT 10.0; Win64; x64) AppleWebKit/537.36 (KHTML, like Gecko) Chrome/122.0.0.0 Safari/537.36" etag="KGtmKSe5KIdwUfUmuzjz" version="24.0.0" type="google">
  <diagram id="C5RBs43oDa-KdzZeNtuy" name="Page-1">
    <mxGraphModel grid="1" page="1" gridSize="10" guides="1" tooltips="1" connect="1" arrows="1" fold="1" pageScale="1" pageWidth="827" pageHeight="1169" math="0" shadow="0">
      <root>
        <mxCell id="WIyWlLk6GJQsqaUBKTNV-0" />
        <mxCell id="WIyWlLk6GJQsqaUBKTNV-1" parent="WIyWlLk6GJQsqaUBKTNV-0" />
        <mxCell id="zkfFHV4jXpPFQw0GAbJ--17" value="BadMiniCyclingPortallmpl" style="swimlane;fontStyle=0;align=center;verticalAlign=top;childLayout=stackLayout;horizontal=1;startSize=26;horizontalStack=0;resizeParent=1;resizeLast=0;collapsible=1;marginBottom=0;rounded=0;shadow=0;strokeWidth=1;" vertex="1" parent="WIyWlLk6GJQsqaUBKTNV-1">
          <mxGeometry x="100" y="30" width="440" height="840" as="geometry">
            <mxRectangle x="550" y="140" width="160" height="26" as="alternateBounds" />
          </mxGeometry>
        </mxCell>
        <mxCell id="zkfFHV4jXpPFQw0GAbJ--18" value="getRaceIds(): int[]" style="text;align=left;verticalAlign=top;spacingLeft=4;spacingRight=4;overflow=hidden;rotatable=0;points=[[0,0.5],[1,0.5]];portConstraint=eastwest;" vertex="1" parent="zkfFHV4jXpPFQw0GAbJ--17">
          <mxGeometry y="26" width="440" height="26" as="geometry" />
        </mxCell>
        <mxCell id="zkfFHV4jXpPFQw0GAbJ--19" value="createRace(string,string): int" style="text;align=left;verticalAlign=top;spacingLeft=4;spacingRight=4;overflow=hidden;rotatable=0;points=[[0,0.5],[1,0.5]];portConstraint=eastwest;rounded=0;shadow=0;html=0;" vertex="1" parent="zkfFHV4jXpPFQw0GAbJ--17">
          <mxGeometry y="52" width="440" height="26" as="geometry" />
        </mxCell>
        <mxCell id="zkfFHV4jXpPFQw0GAbJ--20" value="viewRaceDetails(int): String" style="text;align=left;verticalAlign=top;spacingLeft=4;spacingRight=4;overflow=hidden;rotatable=0;points=[[0,0.5],[1,0.5]];portConstraint=eastwest;rounded=0;shadow=0;html=0;" vertex="1" parent="zkfFHV4jXpPFQw0GAbJ--17">
          <mxGeometry y="78" width="440" height="26" as="geometry" />
        </mxCell>
        <mxCell id="zkfFHV4jXpPFQw0GAbJ--21" value="removeRaceById(int): void" style="text;align=left;verticalAlign=top;spacingLeft=4;spacingRight=4;overflow=hidden;rotatable=0;points=[[0,0.5],[1,0.5]];portConstraint=eastwest;rounded=0;shadow=0;html=0;" vertex="1" parent="zkfFHV4jXpPFQw0GAbJ--17">
          <mxGeometry y="104" width="440" height="26" as="geometry" />
        </mxCell>
        <mxCell id="zkfFHV4jXpPFQw0GAbJ--22" value="getNumberOfStages(int): int &#xa;" style="text;align=left;verticalAlign=top;spacingLeft=4;spacingRight=4;overflow=hidden;rotatable=0;points=[[0,0.5],[1,0.5]];portConstraint=eastwest;rounded=0;shadow=0;html=0;" vertex="1" parent="zkfFHV4jXpPFQw0GAbJ--17">
          <mxGeometry y="130" width="440" height="26" as="geometry" />
        </mxCell>
        <mxCell id="aWNSSflleup9wWjrLawX-42" value="AddStageToRace(int,String, String, double,LocalDateTime,StageType): int &#xa;" style="text;align=left;verticalAlign=top;spacingLeft=4;spacingRight=4;overflow=hidden;rotatable=0;points=[[0,0.5],[1,0.5]];portConstraint=eastwest;rounded=0;shadow=0;html=0;" vertex="1" parent="zkfFHV4jXpPFQw0GAbJ--17">
          <mxGeometry y="156" width="440" height="26" as="geometry" />
        </mxCell>
        <mxCell id="aWNSSflleup9wWjrLawX-43" value="getRaceStages(int): int[]" style="text;align=left;verticalAlign=top;spacingLeft=4;spacingRight=4;overflow=hidden;rotatable=0;points=[[0,0.5],[1,0.5]];portConstraint=eastwest;rounded=0;shadow=0;html=0;" vertex="1" parent="zkfFHV4jXpPFQw0GAbJ--17">
          <mxGeometry y="182" width="440" height="26" as="geometry" />
        </mxCell>
        <mxCell id="aWNSSflleup9wWjrLawX-44" value="getStageLength(int): double" style="text;align=left;verticalAlign=top;spacingLeft=4;spacingRight=4;overflow=hidden;rotatable=0;points=[[0,0.5],[1,0.5]];portConstraint=eastwest;rounded=0;shadow=0;html=0;" vertex="1" parent="zkfFHV4jXpPFQw0GAbJ--17">
          <mxGeometry y="208" width="440" height="26" as="geometry" />
        </mxCell>
        <mxCell id="aWNSSflleup9wWjrLawX-45" value="removeStageById(int): void&#xa;" style="text;align=left;verticalAlign=top;spacingLeft=4;spacingRight=4;overflow=hidden;rotatable=0;points=[[0,0.5],[1,0.5]];portConstraint=eastwest;rounded=0;shadow=0;html=0;" vertex="1" parent="zkfFHV4jXpPFQw0GAbJ--17">
          <mxGeometry y="234" width="440" height="26" as="geometry" />
        </mxCell>
        <mxCell id="qLTVdEFaLlppkx6XKRaZ-4" value=" addCategorizedClimbToStage(int, Double, CheckpointType, Double, Double): int" style="text;align=left;verticalAlign=top;spacingLeft=4;spacingRight=4;overflow=hidden;rotatable=0;points=[[0,0.5],[1,0.5]];portConstraint=eastwest;rounded=0;shadow=0;html=0;" vertex="1" parent="zkfFHV4jXpPFQw0GAbJ--17">
          <mxGeometry y="260" width="440" height="26" as="geometry" />
        </mxCell>
        <mxCell id="qLTVdEFaLlppkx6XKRaZ-3" value="addIntermediateSprintToStage(int, double): int" style="text;align=left;verticalAlign=top;spacingLeft=4;spacingRight=4;overflow=hidden;rotatable=0;points=[[0,0.5],[1,0.5]];portConstraint=eastwest;rounded=0;shadow=0;html=0;" vertex="1" parent="zkfFHV4jXpPFQw0GAbJ--17">
          <mxGeometry y="286" width="440" height="26" as="geometry" />
        </mxCell>
        <mxCell id="qLTVdEFaLlppkx6XKRaZ-1" value="removeCheckpoint(int): void" style="text;align=left;verticalAlign=top;spacingLeft=4;spacingRight=4;overflow=hidden;rotatable=0;points=[[0,0.5],[1,0.5]];portConstraint=eastwest;rounded=0;shadow=0;html=0;" vertex="1" parent="zkfFHV4jXpPFQw0GAbJ--17">
          <mxGeometry y="312" width="440" height="26" as="geometry" />
        </mxCell>
        <mxCell id="qLTVdEFaLlppkx6XKRaZ-2" value="concludeStagePreparation(int): void" style="text;align=left;verticalAlign=top;spacingLeft=4;spacingRight=4;overflow=hidden;rotatable=0;points=[[0,0.5],[1,0.5]];portConstraint=eastwest;rounded=0;shadow=0;html=0;" vertex="1" parent="zkfFHV4jXpPFQw0GAbJ--17">
          <mxGeometry y="338" width="440" height="26" as="geometry" />
        </mxCell>
        <mxCell id="qLTVdEFaLlppkx6XKRaZ-0" value="getStageCheckpoints(int): int array" style="text;align=left;verticalAlign=top;spacingLeft=4;spacingRight=4;overflow=hidden;rotatable=0;points=[[0,0.5],[1,0.5]];portConstraint=eastwest;rounded=0;shadow=0;html=0;" vertex="1" parent="zkfFHV4jXpPFQw0GAbJ--17">
          <mxGeometry y="364" width="440" height="26" as="geometry" />
        </mxCell>
        <mxCell id="qLTVdEFaLlppkx6XKRaZ-10" value="createTeam(String, String): int" style="text;align=left;verticalAlign=top;spacingLeft=4;spacingRight=4;overflow=hidden;rotatable=0;points=[[0,0.5],[1,0.5]];portConstraint=eastwest;rounded=0;shadow=0;html=0;" vertex="1" parent="zkfFHV4jXpPFQw0GAbJ--17">
          <mxGeometry y="390" width="440" height="26" as="geometry" />
        </mxCell>
        <mxCell id="qLTVdEFaLlppkx6XKRaZ-9" value="removeTeam(int): void" style="text;align=left;verticalAlign=top;spacingLeft=4;spacingRight=4;overflow=hidden;rotatable=0;points=[[0,0.5],[1,0.5]];portConstraint=eastwest;rounded=0;shadow=0;html=0;" vertex="1" parent="zkfFHV4jXpPFQw0GAbJ--17">
          <mxGeometry y="416" width="440" height="26" as="geometry" />
        </mxCell>
        <mxCell id="qLTVdEFaLlppkx6XKRaZ-8" value="getTeams(): int array" style="text;align=left;verticalAlign=top;spacingLeft=4;spacingRight=4;overflow=hidden;rotatable=0;points=[[0,0.5],[1,0.5]];portConstraint=eastwest;rounded=0;shadow=0;html=0;" vertex="1" parent="zkfFHV4jXpPFQw0GAbJ--17">
          <mxGeometry y="442" width="440" height="26" as="geometry" />
        </mxCell>
        <mxCell id="qLTVdEFaLlppkx6XKRaZ-7" value="getTeamRiders(int): int array" style="text;align=left;verticalAlign=top;spacingLeft=4;spacingRight=4;overflow=hidden;rotatable=0;points=[[0,0.5],[1,0.5]];portConstraint=eastwest;rounded=0;shadow=0;html=0;" vertex="1" parent="zkfFHV4jXpPFQw0GAbJ--17">
          <mxGeometry y="468" width="440" height="26" as="geometry" />
        </mxCell>
        <mxCell id="qLTVdEFaLlppkx6XKRaZ-6" value="createRider(int, String, int): int" style="text;align=left;verticalAlign=top;spacingLeft=4;spacingRight=4;overflow=hidden;rotatable=0;points=[[0,0.5],[1,0.5]];portConstraint=eastwest;rounded=0;shadow=0;html=0;" vertex="1" parent="zkfFHV4jXpPFQw0GAbJ--17">
          <mxGeometry y="494" width="440" height="26" as="geometry" />
        </mxCell>
        <mxCell id="qLTVdEFaLlppkx6XKRaZ-5" value="removeRider(int): void" style="text;align=left;verticalAlign=top;spacingLeft=4;spacingRight=4;overflow=hidden;rotatable=0;points=[[0,0.5],[1,0.5]];portConstraint=eastwest;rounded=0;shadow=0;html=0;" vertex="1" parent="zkfFHV4jXpPFQw0GAbJ--17">
          <mxGeometry y="520" width="440" height="26" as="geometry" />
        </mxCell>
        <mxCell id="qLTVdEFaLlppkx6XKRaZ-13" value="registerRiderResultsInStage(int, int, LocalTime): void" style="text;align=left;verticalAlign=top;spacingLeft=4;spacingRight=4;overflow=hidden;rotatable=0;points=[[0,0.5],[1,0.5]];portConstraint=eastwest;rounded=0;shadow=0;html=0;" vertex="1" parent="zkfFHV4jXpPFQw0GAbJ--17">
          <mxGeometry y="546" width="440" height="26" as="geometry" />
        </mxCell>
        <mxCell id="qLTVdEFaLlppkx6XKRaZ-12" value="getRiderResultsInStage(int, int): LocalTime array" style="text;align=left;verticalAlign=top;spacingLeft=4;spacingRight=4;overflow=hidden;rotatable=0;points=[[0,0.5],[1,0.5]];portConstraint=eastwest;rounded=0;shadow=0;html=0;" vertex="1" parent="zkfFHV4jXpPFQw0GAbJ--17">
          <mxGeometry y="572" width="440" height="26" as="geometry" />
        </mxCell>
        <mxCell id="qLTVdEFaLlppkx6XKRaZ-11" value="getRiderAdjustedElapsedTimeInStage(int, int): LocalTime" style="text;align=left;verticalAlign=top;spacingLeft=4;spacingRight=4;overflow=hidden;rotatable=0;points=[[0,0.5],[1,0.5]];portConstraint=eastwest;rounded=0;shadow=0;html=0;" vertex="1" parent="zkfFHV4jXpPFQw0GAbJ--17">
          <mxGeometry y="598" width="440" height="26" as="geometry" />
        </mxCell>
        <mxCell id="qLTVdEFaLlppkx6XKRaZ-14" value="deleteRiderResultsInStage(int, int): void" style="text;align=left;verticalAlign=top;spacingLeft=4;spacingRight=4;overflow=hidden;rotatable=0;points=[[0,0.5],[1,0.5]];portConstraint=eastwest;rounded=0;shadow=0;html=0;" vertex="1" parent="zkfFHV4jXpPFQw0GAbJ--17">
          <mxGeometry y="624" width="440" height="26" as="geometry" />
        </mxCell>
        <mxCell id="qLTVdEFaLlppkx6XKRaZ-16" value="getRidersRankInStage(int): int array" style="text;align=left;verticalAlign=top;spacingLeft=4;spacingRight=4;overflow=hidden;rotatable=0;points=[[0,0.5],[1,0.5]];portConstraint=eastwest;rounded=0;shadow=0;html=0;" vertex="1" parent="zkfFHV4jXpPFQw0GAbJ--17">
          <mxGeometry y="650" width="440" height="26" as="geometry" />
        </mxCell>
        <mxCell id="qLTVdEFaLlppkx6XKRaZ-17" value="getRankedAdjustedElapsedTimeInStage(int): LocalTime array" style="text;align=left;verticalAlign=top;spacingLeft=4;spacingRight=4;overflow=hidden;rotatable=0;points=[[0,0.5],[1,0.5]];portConstraint=eastwest;rounded=0;shadow=0;html=0;" vertex="1" parent="zkfFHV4jXpPFQw0GAbJ--17">
          <mxGeometry y="676" width="440" height="26" as="geometry" />
        </mxCell>
        <mxCell id="qLTVdEFaLlppkx6XKRaZ-18" value="getRidersPointsInStage(int): int array" style="text;align=left;verticalAlign=top;spacingLeft=4;spacingRight=4;overflow=hidden;rotatable=0;points=[[0,0.5],[1,0.5]];portConstraint=eastwest;rounded=0;shadow=0;html=0;" vertex="1" parent="zkfFHV4jXpPFQw0GAbJ--17">
          <mxGeometry y="702" width="440" height="26" as="geometry" />
        </mxCell>
        <mxCell id="qLTVdEFaLlppkx6XKRaZ-19" value="getRidersMountainPointsInStage(int): int array" style="text;align=left;verticalAlign=top;spacingLeft=4;spacingRight=4;overflow=hidden;rotatable=0;points=[[0,0.5],[1,0.5]];portConstraint=eastwest;rounded=0;shadow=0;html=0;" vertex="1" parent="zkfFHV4jXpPFQw0GAbJ--17">
          <mxGeometry y="728" width="440" height="26" as="geometry" />
        </mxCell>
        <mxCell id="qLTVdEFaLlppkx6XKRaZ-20" value="eraseCyclingPortal(): void" style="text;align=left;verticalAlign=top;spacingLeft=4;spacingRight=4;overflow=hidden;rotatable=0;points=[[0,0.5],[1,0.5]];portConstraint=eastwest;rounded=0;shadow=0;html=0;" vertex="1" parent="zkfFHV4jXpPFQw0GAbJ--17">
          <mxGeometry y="754" width="440" height="26" as="geometry" />
        </mxCell>
        <mxCell id="qLTVdEFaLlppkx6XKRaZ-21" value="saveCyclingPortal(String): void" style="text;align=left;verticalAlign=top;spacingLeft=4;spacingRight=4;overflow=hidden;rotatable=0;points=[[0,0.5],[1,0.5]];portConstraint=eastwest;rounded=0;shadow=0;html=0;" vertex="1" parent="zkfFHV4jXpPFQw0GAbJ--17">
          <mxGeometry y="780" width="440" height="30" as="geometry" />
        </mxCell>
        <mxCell id="qLTVdEFaLlppkx6XKRaZ-23" value="loadCyclingPortal(String): void" style="text;align=left;verticalAlign=top;spacingLeft=4;spacingRight=4;overflow=hidden;rotatable=0;points=[[0,0.5],[1,0.5]];portConstraint=eastwest;rounded=0;shadow=0;html=0;" vertex="1" parent="zkfFHV4jXpPFQw0GAbJ--17">
          <mxGeometry y="810" width="440" height="30" as="geometry" />
        </mxCell>
        <mxCell id="aWNSSflleup9wWjrLawX-31" value="CyclingPortal" style="rounded=0;whiteSpace=wrap;html=1;" vertex="1" parent="WIyWlLk6GJQsqaUBKTNV-1">
          <mxGeometry x="-70" y="50" width="110" height="78" as="geometry" />
        </mxCell>
        <mxCell id="aWNSSflleup9wWjrLawX-32" value="" style="endArrow=classic;html=1;rounded=0;dashed=1;" edge="1" parent="WIyWlLk6GJQsqaUBKTNV-1">
          <mxGeometry width="50" height="50" relative="1" as="geometry">
            <mxPoint x="40" y="90" as="sourcePoint" />
            <mxPoint x="100" y="90" as="targetPoint" />
          </mxGeometry>
        </mxCell>
        <mxCell id="qLTVdEFaLlppkx6XKRaZ-24" value="BadCyclingPortallmpl" style="swimlane;fontStyle=0;align=center;verticalAlign=top;childLayout=stackLayout;horizontal=1;startSize=26;horizontalStack=0;resizeParent=1;resizeLast=0;collapsible=1;marginBottom=0;rounded=0;shadow=0;strokeWidth=1;" vertex="1" parent="WIyWlLk6GJQsqaUBKTNV-1">
          <mxGeometry x="827" y="30" width="440" height="210" as="geometry">
            <mxRectangle x="550" y="140" width="160" height="26" as="alternateBounds" />
          </mxGeometry>
        </mxCell>
        <mxCell id="qLTVdEFaLlppkx6XKRaZ-25" value="removeRaceByName(String): void" style="text;align=left;verticalAlign=top;spacingLeft=4;spacingRight=4;overflow=hidden;rotatable=0;points=[[0,0.5],[1,0.5]];portConstraint=eastwest;" vertex="1" parent="qLTVdEFaLlppkx6XKRaZ-24">
          <mxGeometry y="26" width="440" height="26" as="geometry" />
        </mxCell>
        <mxCell id="qLTVdEFaLlppkx6XKRaZ-26" value="getRiderGeneralClassificationRank(int): int array" style="text;align=left;verticalAlign=top;spacingLeft=4;spacingRight=4;overflow=hidden;rotatable=0;points=[[0,0.5],[1,0.5]];portConstraint=eastwest;rounded=0;shadow=0;html=0;" vertex="1" parent="qLTVdEFaLlppkx6XKRaZ-24">
          <mxGeometry y="52" width="440" height="26" as="geometry" />
        </mxCell>
        <mxCell id="qLTVdEFaLlppkx6XKRaZ-27" value="getGeneralClassificationTimesInRace(int): LocalTime array" style="text;align=left;verticalAlign=top;spacingLeft=4;spacingRight=4;overflow=hidden;rotatable=0;points=[[0,0.5],[1,0.5]];portConstraint=eastwest;rounded=0;shadow=0;html=0;" vertex="1" parent="qLTVdEFaLlppkx6XKRaZ-24">
          <mxGeometry y="78" width="440" height="26" as="geometry" />
        </mxCell>
        <mxCell id="qLTVdEFaLlppkx6XKRaZ-28" value="getRidersPointsInRace(int): int array" style="text;align=left;verticalAlign=top;spacingLeft=4;spacingRight=4;overflow=hidden;rotatable=0;points=[[0,0.5],[1,0.5]];portConstraint=eastwest;rounded=0;shadow=0;html=0;" vertex="1" parent="qLTVdEFaLlppkx6XKRaZ-24">
          <mxGeometry y="104" width="440" height="26" as="geometry" />
        </mxCell>
        <mxCell id="qLTVdEFaLlppkx6XKRaZ-29" value="getRidersMountainPointsInRace(int): int array" style="text;align=left;verticalAlign=top;spacingLeft=4;spacingRight=4;overflow=hidden;rotatable=0;points=[[0,0.5],[1,0.5]];portConstraint=eastwest;rounded=0;shadow=0;html=0;" vertex="1" parent="qLTVdEFaLlppkx6XKRaZ-24">
          <mxGeometry y="130" width="440" height="26" as="geometry" />
        </mxCell>
        <mxCell id="qLTVdEFaLlppkx6XKRaZ-30" value="getRidersPointClassificationRank(int): int array" style="text;align=left;verticalAlign=top;spacingLeft=4;spacingRight=4;overflow=hidden;rotatable=0;points=[[0,0.5],[1,0.5]];portConstraint=eastwest;rounded=0;shadow=0;html=0;" vertex="1" parent="qLTVdEFaLlppkx6XKRaZ-24">
          <mxGeometry y="156" width="440" height="26" as="geometry" />
        </mxCell>
        <mxCell id="qLTVdEFaLlppkx6XKRaZ-31" value="getRidersMountainPointClassificationRank(int): int array" style="text;align=left;verticalAlign=top;spacingLeft=4;spacingRight=4;overflow=hidden;rotatable=0;points=[[0,0.5],[1,0.5]];portConstraint=eastwest;rounded=0;shadow=0;html=0;" vertex="1" parent="qLTVdEFaLlppkx6XKRaZ-24">
          <mxGeometry y="182" width="440" height="26" as="geometry" />
        </mxCell>
        <mxCell id="qLTVdEFaLlppkx6XKRaZ-56" value="MiniCyclingPortal" style="rounded=0;whiteSpace=wrap;html=1;" vertex="1" parent="WIyWlLk6GJQsqaUBKTNV-1">
          <mxGeometry x="657" y="50" width="110" height="78" as="geometry" />
        </mxCell>
        <mxCell id="qLTVdEFaLlppkx6XKRaZ-57" value="" style="endArrow=classic;html=1;rounded=0;dashed=1;" edge="1" parent="WIyWlLk6GJQsqaUBKTNV-1">
          <mxGeometry width="50" height="50" relative="1" as="geometry">
            <mxPoint x="767" y="90" as="sourcePoint" />
            <mxPoint x="827" y="90" as="targetPoint" />
          </mxGeometry>
        </mxCell>
        <mxCell id="aaVzcD2_fwo34WTeyBTf-11" value="Team" style="swimlane;fontStyle=2;align=center;verticalAlign=top;childLayout=stackLayout;horizontal=1;startSize=26;horizontalStack=0;resizeParent=1;resizeLast=0;collapsible=1;marginBottom=0;rounded=0;shadow=0;strokeWidth=1;" vertex="1" parent="WIyWlLk6GJQsqaUBKTNV-1">
          <mxGeometry x="-590" y="1110" width="190" height="298" as="geometry">
            <mxRectangle x="230" y="140" width="160" height="26" as="alternateBounds" />
          </mxGeometry>
        </mxCell>
        <mxCell id="aaVzcD2_fwo34WTeyBTf-12" value="Name: String" style="text;align=left;verticalAlign=top;spacingLeft=4;spacingRight=4;overflow=hidden;rotatable=0;points=[[0,0.5],[1,0.5]];portConstraint=eastwest;" vertex="1" parent="aaVzcD2_fwo34WTeyBTf-11">
          <mxGeometry y="26" width="190" height="26" as="geometry" />
        </mxCell>
        <mxCell id="aaVzcD2_fwo34WTeyBTf-14" value="Nationality: String" style="text;align=left;verticalAlign=top;spacingLeft=4;spacingRight=4;overflow=hidden;rotatable=0;points=[[0,0.5],[1,0.5]];portConstraint=eastwest;rounded=0;shadow=0;html=0;" vertex="1" parent="aaVzcD2_fwo34WTeyBTf-11">
          <mxGeometry y="52" width="190" height="26" as="geometry" />
        </mxCell>
        <mxCell id="aaVzcD2_fwo34WTeyBTf-16" value="riders: Riders[]" style="text;align=left;verticalAlign=top;spacingLeft=4;spacingRight=4;overflow=hidden;rotatable=0;points=[[0,0.5],[1,0.5]];portConstraint=eastwest;rounded=0;shadow=0;html=0;" vertex="1" parent="aaVzcD2_fwo34WTeyBTf-11">
          <mxGeometry y="78" width="190" height="26" as="geometry" />
        </mxCell>
        <mxCell id="aaVzcD2_fwo34WTeyBTf-97" value="id: int" style="text;align=left;verticalAlign=top;spacingLeft=4;spacingRight=4;overflow=hidden;rotatable=0;points=[[0,0.5],[1,0.5]];portConstraint=eastwest;rounded=0;shadow=0;html=0;" vertex="1" parent="aaVzcD2_fwo34WTeyBTf-11">
          <mxGeometry y="104" width="190" height="26" as="geometry" />
        </mxCell>
        <mxCell id="aaVzcD2_fwo34WTeyBTf-17" value="" style="line;html=1;strokeWidth=1;align=left;verticalAlign=middle;spacingTop=-1;spacingLeft=3;spacingRight=3;rotatable=0;labelPosition=right;points=[];portConstraint=eastwest;" vertex="1" parent="aaVzcD2_fwo34WTeyBTf-11">
          <mxGeometry y="130" width="190" height="12" as="geometry" />
        </mxCell>
        <mxCell id="aaVzcD2_fwo34WTeyBTf-18" value="Getters&amp;Setters" style="text;align=left;verticalAlign=top;spacingLeft=4;spacingRight=4;overflow=hidden;rotatable=0;points=[[0,0.5],[1,0.5]];portConstraint=eastwest;" vertex="1" parent="aaVzcD2_fwo34WTeyBTf-11">
          <mxGeometry y="142" width="190" height="34" as="geometry" />
        </mxCell>
        <mxCell id="aaVzcD2_fwo34WTeyBTf-19" value="NumberOfRiders(Riders[]): int" style="text;align=left;verticalAlign=top;spacingLeft=4;spacingRight=4;overflow=hidden;rotatable=0;points=[[0,0.5],[1,0.5]];portConstraint=eastwest;" vertex="1" parent="aaVzcD2_fwo34WTeyBTf-11">
          <mxGeometry y="176" width="190" height="32" as="geometry" />
        </mxCell>
        <mxCell id="aaVzcD2_fwo34WTeyBTf-20" value="RidersNames(Riders[]): String[]" style="text;align=left;verticalAlign=top;spacingLeft=4;spacingRight=4;overflow=hidden;rotatable=0;points=[[0,0.5],[1,0.5]];portConstraint=eastwest;" vertex="1" parent="aaVzcD2_fwo34WTeyBTf-11">
          <mxGeometry y="208" width="190" height="30" as="geometry" />
        </mxCell>
        <mxCell id="aaVzcD2_fwo34WTeyBTf-22" value="AddRider(Riders[], rider): Riders[]" style="text;align=left;verticalAlign=top;spacingLeft=4;spacingRight=4;overflow=hidden;rotatable=0;points=[[0,0.5],[1,0.5]];portConstraint=eastwest;" vertex="1" parent="aaVzcD2_fwo34WTeyBTf-11">
          <mxGeometry y="238" width="190" height="30" as="geometry" />
        </mxCell>
        <mxCell id="aaVzcD2_fwo34WTeyBTf-23" value="DeleteRider(Riders[], id): Riders[]" style="text;align=left;verticalAlign=top;spacingLeft=4;spacingRight=4;overflow=hidden;rotatable=0;points=[[0,0.5],[1,0.5]];portConstraint=eastwest;" vertex="1" parent="aaVzcD2_fwo34WTeyBTf-11">
          <mxGeometry y="268" width="190" height="30" as="geometry" />
        </mxCell>
        <mxCell id="aaVzcD2_fwo34WTeyBTf-33" value="Race" style="swimlane;fontStyle=2;align=center;verticalAlign=top;childLayout=stackLayout;horizontal=1;startSize=26;horizontalStack=0;resizeParent=1;resizeLast=0;collapsible=1;marginBottom=0;rounded=0;shadow=0;strokeWidth=1;" vertex="1" parent="WIyWlLk6GJQsqaUBKTNV-1">
          <mxGeometry x="-390" y="750" width="170" height="278" as="geometry">
            <mxRectangle x="230" y="140" width="160" height="26" as="alternateBounds" />
          </mxGeometry>
        </mxCell>
        <mxCell id="aaVzcD2_fwo34WTeyBTf-34" value="Teams: Team[]" style="text;align=left;verticalAlign=top;spacingLeft=4;spacingRight=4;overflow=hidden;rotatable=0;points=[[0,0.5],[1,0.5]];portConstraint=eastwest;" vertex="1" parent="aaVzcD2_fwo34WTeyBTf-33">
          <mxGeometry y="26" width="170" height="26" as="geometry" />
        </mxCell>
        <mxCell id="aaVzcD2_fwo34WTeyBTf-35" value="RaceName: String" style="text;align=left;verticalAlign=top;spacingLeft=4;spacingRight=4;overflow=hidden;rotatable=0;points=[[0,0.5],[1,0.5]];portConstraint=eastwest;rounded=0;shadow=0;html=0;" vertex="1" parent="aaVzcD2_fwo34WTeyBTf-33">
          <mxGeometry y="52" width="170" height="26" as="geometry" />
        </mxCell>
        <mxCell id="aaVzcD2_fwo34WTeyBTf-38" value="Stages: Stage[]" style="text;align=left;verticalAlign=top;spacingLeft=4;spacingRight=4;overflow=hidden;rotatable=0;points=[[0,0.5],[1,0.5]];portConstraint=eastwest;rounded=0;shadow=0;html=0;" vertex="1" parent="aaVzcD2_fwo34WTeyBTf-33">
          <mxGeometry y="78" width="170" height="26" as="geometry" />
        </mxCell>
        <mxCell id="aaVzcD2_fwo34WTeyBTf-40" value="" style="line;html=1;strokeWidth=1;align=left;verticalAlign=middle;spacingTop=-1;spacingLeft=3;spacingRight=3;rotatable=0;labelPosition=right;points=[];portConstraint=eastwest;" vertex="1" parent="aaVzcD2_fwo34WTeyBTf-33">
          <mxGeometry y="104" width="170" height="12" as="geometry" />
        </mxCell>
        <mxCell id="aaVzcD2_fwo34WTeyBTf-41" value="Getters&amp;Setters" style="text;align=left;verticalAlign=top;spacingLeft=4;spacingRight=4;overflow=hidden;rotatable=0;points=[[0,0.5],[1,0.5]];portConstraint=eastwest;" vertex="1" parent="aaVzcD2_fwo34WTeyBTf-33">
          <mxGeometry y="116" width="170" height="42" as="geometry" />
        </mxCell>
        <mxCell id="aaVzcD2_fwo34WTeyBTf-42" value="TeamAsString(Team[]): String" style="text;align=left;verticalAlign=top;spacingLeft=4;spacingRight=4;overflow=hidden;rotatable=0;points=[[0,0.5],[1,0.5]];portConstraint=eastwest;" vertex="1" parent="aaVzcD2_fwo34WTeyBTf-33">
          <mxGeometry y="158" width="170" height="42" as="geometry" />
        </mxCell>
        <mxCell id="aaVzcD2_fwo34WTeyBTf-46" value="Rider" style="swimlane;fontStyle=2;align=center;verticalAlign=top;childLayout=stackLayout;horizontal=1;startSize=26;horizontalStack=0;resizeParent=1;resizeLast=0;collapsible=1;marginBottom=0;rounded=0;shadow=0;strokeWidth=1;" vertex="1" parent="WIyWlLk6GJQsqaUBKTNV-1">
          <mxGeometry x="-590" y="1480" width="160" height="278" as="geometry">
            <mxRectangle x="230" y="140" width="160" height="26" as="alternateBounds" />
          </mxGeometry>
        </mxCell>
        <mxCell id="aaVzcD2_fwo34WTeyBTf-47" value="First Name: String" style="text;align=left;verticalAlign=top;spacingLeft=4;spacingRight=4;overflow=hidden;rotatable=0;points=[[0,0.5],[1,0.5]];portConstraint=eastwest;" vertex="1" parent="aaVzcD2_fwo34WTeyBTf-46">
          <mxGeometry y="26" width="160" height="26" as="geometry" />
        </mxCell>
        <mxCell id="aaVzcD2_fwo34WTeyBTf-48" value="Last Name: String" style="text;align=left;verticalAlign=top;spacingLeft=4;spacingRight=4;overflow=hidden;rotatable=0;points=[[0,0.5],[1,0.5]];portConstraint=eastwest;rounded=0;shadow=0;html=0;" vertex="1" parent="aaVzcD2_fwo34WTeyBTf-46">
          <mxGeometry y="52" width="160" height="26" as="geometry" />
        </mxCell>
        <mxCell id="aaVzcD2_fwo34WTeyBTf-49" value="Nationality: String" style="text;align=left;verticalAlign=top;spacingLeft=4;spacingRight=4;overflow=hidden;rotatable=0;points=[[0,0.5],[1,0.5]];portConstraint=eastwest;rounded=0;shadow=0;html=0;" vertex="1" parent="aaVzcD2_fwo34WTeyBTf-46">
          <mxGeometry y="78" width="160" height="26" as="geometry" />
        </mxCell>
        <mxCell id="aaVzcD2_fwo34WTeyBTf-50" value="Age: int" style="text;align=left;verticalAlign=top;spacingLeft=4;spacingRight=4;overflow=hidden;rotatable=0;points=[[0,0.5],[1,0.5]];portConstraint=eastwest;rounded=0;shadow=0;html=0;" vertex="1" parent="aaVzcD2_fwo34WTeyBTf-46">
          <mxGeometry y="104" width="160" height="26" as="geometry" />
        </mxCell>
        <mxCell id="aaVzcD2_fwo34WTeyBTf-51" value="id: int" style="text;align=left;verticalAlign=top;spacingLeft=4;spacingRight=4;overflow=hidden;rotatable=0;points=[[0,0.5],[1,0.5]];portConstraint=eastwest;rounded=0;shadow=0;html=0;" vertex="1" parent="aaVzcD2_fwo34WTeyBTf-46">
          <mxGeometry y="130" width="160" height="26" as="geometry" />
        </mxCell>
        <mxCell id="aaVzcD2_fwo34WTeyBTf-52" value="team: Team" style="text;align=left;verticalAlign=top;spacingLeft=4;spacingRight=4;overflow=hidden;rotatable=0;points=[[0,0.5],[1,0.5]];portConstraint=eastwest;rounded=0;shadow=0;html=0;fontStyle=0" vertex="1" parent="aaVzcD2_fwo34WTeyBTf-46">
          <mxGeometry y="156" width="160" height="26" as="geometry" />
        </mxCell>
        <mxCell id="aaVzcD2_fwo34WTeyBTf-53" value="" style="line;html=1;strokeWidth=1;align=left;verticalAlign=middle;spacingTop=-1;spacingLeft=3;spacingRight=3;rotatable=0;labelPosition=right;points=[];portConstraint=eastwest;" vertex="1" parent="aaVzcD2_fwo34WTeyBTf-46">
          <mxGeometry y="182" width="160" height="12" as="geometry" />
        </mxCell>
        <mxCell id="aaVzcD2_fwo34WTeyBTf-54" value="Getters&amp;Setters" style="text;align=left;verticalAlign=top;spacingLeft=4;spacingRight=4;overflow=hidden;rotatable=0;points=[[0,0.5],[1,0.5]];portConstraint=eastwest;" vertex="1" parent="aaVzcD2_fwo34WTeyBTf-46">
          <mxGeometry y="194" width="160" height="42" as="geometry" />
        </mxCell>
        <mxCell id="aaVzcD2_fwo34WTeyBTf-55" value="TeamAsString(team): String" style="text;align=left;verticalAlign=top;spacingLeft=4;spacingRight=4;overflow=hidden;rotatable=0;points=[[0,0.5],[1,0.5]];portConstraint=eastwest;" vertex="1" parent="aaVzcD2_fwo34WTeyBTf-46">
          <mxGeometry y="236" width="160" height="42" as="geometry" />
        </mxCell>
        <mxCell id="aaVzcD2_fwo34WTeyBTf-57" value="Stages" style="swimlane;fontStyle=2;align=center;verticalAlign=top;childLayout=stackLayout;horizontal=1;startSize=26;horizontalStack=0;resizeParent=1;resizeLast=0;collapsible=1;marginBottom=0;rounded=0;shadow=0;strokeWidth=1;" vertex="1" parent="WIyWlLk6GJQsqaUBKTNV-1">
          <mxGeometry x="-250" y="1107" width="160" height="278" as="geometry">
            <mxRectangle x="230" y="140" width="160" height="26" as="alternateBounds" />
          </mxGeometry>
        </mxCell>
        <mxCell id="aaVzcD2_fwo34WTeyBTf-58" value="Type: int" style="text;align=left;verticalAlign=top;spacingLeft=4;spacingRight=4;overflow=hidden;rotatable=0;points=[[0,0.5],[1,0.5]];portConstraint=eastwest;" vertex="1" parent="aaVzcD2_fwo34WTeyBTf-57">
          <mxGeometry y="26" width="160" height="26" as="geometry" />
        </mxCell>
        <mxCell id="aaVzcD2_fwo34WTeyBTf-59" value="Distance: int" style="text;align=left;verticalAlign=top;spacingLeft=4;spacingRight=4;overflow=hidden;rotatable=0;points=[[0,0.5],[1,0.5]];portConstraint=eastwest;rounded=0;shadow=0;html=0;" vertex="1" parent="aaVzcD2_fwo34WTeyBTf-57">
          <mxGeometry y="52" width="160" height="26" as="geometry" />
        </mxCell>
        <mxCell id="aaVzcD2_fwo34WTeyBTf-60" value="Checkpoints: Checkpoint[]" style="text;align=left;verticalAlign=top;spacingLeft=4;spacingRight=4;overflow=hidden;rotatable=0;points=[[0,0.5],[1,0.5]];portConstraint=eastwest;rounded=0;shadow=0;html=0;" vertex="1" parent="aaVzcD2_fwo34WTeyBTf-57">
          <mxGeometry y="78" width="160" height="26" as="geometry" />
        </mxCell>
        <mxCell id="aaVzcD2_fwo34WTeyBTf-98" value="id: int" style="text;align=left;verticalAlign=top;spacingLeft=4;spacingRight=4;overflow=hidden;rotatable=0;points=[[0,0.5],[1,0.5]];portConstraint=eastwest;rounded=0;shadow=0;html=0;" vertex="1" parent="aaVzcD2_fwo34WTeyBTf-57">
          <mxGeometry y="104" width="160" height="26" as="geometry" />
        </mxCell>
        <mxCell id="aaVzcD2_fwo34WTeyBTf-61" value="" style="line;html=1;strokeWidth=1;align=left;verticalAlign=middle;spacingTop=-1;spacingLeft=3;spacingRight=3;rotatable=0;labelPosition=right;points=[];portConstraint=eastwest;" vertex="1" parent="aaVzcD2_fwo34WTeyBTf-57">
          <mxGeometry y="130" width="160" height="12" as="geometry" />
        </mxCell>
        <mxCell id="aaVzcD2_fwo34WTeyBTf-62" value="Getters&amp;Setters" style="text;align=left;verticalAlign=top;spacingLeft=4;spacingRight=4;overflow=hidden;rotatable=0;points=[[0,0.5],[1,0.5]];portConstraint=eastwest;" vertex="1" parent="aaVzcD2_fwo34WTeyBTf-57">
          <mxGeometry y="142" width="160" height="28" as="geometry" />
        </mxCell>
        <mxCell id="aaVzcD2_fwo34WTeyBTf-71" value="" style="endArrow=classic;html=1;rounded=0;entryX=0.5;entryY=0;entryDx=0;entryDy=0;" edge="1" parent="aaVzcD2_fwo34WTeyBTf-57" target="aaVzcD2_fwo34WTeyBTf-64">
          <mxGeometry width="50" height="50" relative="1" as="geometry">
            <mxPoint x="80" y="278" as="sourcePoint" />
            <mxPoint x="130" y="228" as="targetPoint" />
          </mxGeometry>
        </mxCell>
        <mxCell id="aaVzcD2_fwo34WTeyBTf-64" value="Checkpoint" style="swimlane;fontStyle=2;align=center;verticalAlign=top;childLayout=stackLayout;horizontal=1;startSize=26;horizontalStack=0;resizeParent=1;resizeLast=0;collapsible=1;marginBottom=0;rounded=0;shadow=0;strokeWidth=1;" vertex="1" parent="WIyWlLk6GJQsqaUBKTNV-1">
          <mxGeometry x="-250" y="1480" width="160" height="278" as="geometry">
            <mxRectangle x="230" y="140" width="160" height="26" as="alternateBounds" />
          </mxGeometry>
        </mxCell>
        <mxCell id="aaVzcD2_fwo34WTeyBTf-66" value="TerrainType: enum" style="text;align=left;verticalAlign=top;spacingLeft=4;spacingRight=4;overflow=hidden;rotatable=0;points=[[0,0.5],[1,0.5]];portConstraint=eastwest;rounded=0;shadow=0;html=0;" vertex="1" parent="aaVzcD2_fwo34WTeyBTf-64">
          <mxGeometry y="26" width="160" height="26" as="geometry" />
        </mxCell>
        <mxCell id="aaVzcD2_fwo34WTeyBTf-67" value="Elavation: int" style="text;align=left;verticalAlign=top;spacingLeft=4;spacingRight=4;overflow=hidden;rotatable=0;points=[[0,0.5],[1,0.5]];portConstraint=eastwest;rounded=0;shadow=0;html=0;" vertex="1" parent="aaVzcD2_fwo34WTeyBTf-64">
          <mxGeometry y="52" width="160" height="26" as="geometry" />
        </mxCell>
        <mxCell id="aaVzcD2_fwo34WTeyBTf-113" value="Distance: int" style="text;align=left;verticalAlign=top;spacingLeft=4;spacingRight=4;overflow=hidden;rotatable=0;points=[[0,0.5],[1,0.5]];portConstraint=eastwest;rounded=0;shadow=0;html=0;" vertex="1" parent="aaVzcD2_fwo34WTeyBTf-64">
          <mxGeometry y="78" width="160" height="26" as="geometry" />
        </mxCell>
        <mxCell id="aaVzcD2_fwo34WTeyBTf-99" value="id: int" style="text;align=left;verticalAlign=top;spacingLeft=4;spacingRight=4;overflow=hidden;rotatable=0;points=[[0,0.5],[1,0.5]];portConstraint=eastwest;rounded=0;shadow=0;html=0;" vertex="1" parent="aaVzcD2_fwo34WTeyBTf-64">
          <mxGeometry y="104" width="160" height="26" as="geometry" />
        </mxCell>
        <mxCell id="aaVzcD2_fwo34WTeyBTf-68" value="" style="line;html=1;strokeWidth=1;align=left;verticalAlign=middle;spacingTop=-1;spacingLeft=3;spacingRight=3;rotatable=0;labelPosition=right;points=[];portConstraint=eastwest;" vertex="1" parent="aaVzcD2_fwo34WTeyBTf-64">
          <mxGeometry y="130" width="160" height="12" as="geometry" />
        </mxCell>
        <mxCell id="aaVzcD2_fwo34WTeyBTf-69" value="Getters&amp;Setters" style="text;align=left;verticalAlign=top;spacingLeft=4;spacingRight=4;overflow=hidden;rotatable=0;points=[[0,0.5],[1,0.5]];portConstraint=eastwest;" vertex="1" parent="aaVzcD2_fwo34WTeyBTf-64">
          <mxGeometry y="142" width="160" height="42" as="geometry" />
        </mxCell>
        <mxCell id="aaVzcD2_fwo34WTeyBTf-85" value="Management" style="swimlane;fontStyle=2;align=center;verticalAlign=top;childLayout=stackLayout;horizontal=1;startSize=26;horizontalStack=0;resizeParent=1;resizeLast=0;collapsible=1;marginBottom=0;rounded=0;shadow=0;strokeWidth=1;" vertex="1" parent="WIyWlLk6GJQsqaUBKTNV-1">
          <mxGeometry x="-410" y="390" width="210" height="278" as="geometry">
            <mxRectangle x="230" y="140" width="160" height="26" as="alternateBounds" />
          </mxGeometry>
        </mxCell>
        <mxCell id="aaVzcD2_fwo34WTeyBTf-92" value="NumberOf(T[]): int, T[]" style="text;align=left;verticalAlign=top;spacingLeft=4;spacingRight=4;overflow=hidden;rotatable=0;points=[[0,0.5],[1,0.5]];portConstraint=eastwest;" vertex="1" parent="aaVzcD2_fwo34WTeyBTf-85">
          <mxGeometry y="26" width="210" height="32" as="geometry" />
        </mxCell>
        <mxCell id="aaVzcD2_fwo34WTeyBTf-93" value="PrintedOutAsString(T[]): String[], T[]" style="text;align=left;verticalAlign=top;spacingLeft=4;spacingRight=4;overflow=hidden;rotatable=0;points=[[0,0.5],[1,0.5]];portConstraint=eastwest;" vertex="1" parent="aaVzcD2_fwo34WTeyBTf-85">
          <mxGeometry y="58" width="210" height="30" as="geometry" />
        </mxCell>
        <mxCell id="aaVzcD2_fwo34WTeyBTf-94" value="Add(T[], newItem): T[]" style="text;align=left;verticalAlign=top;spacingLeft=4;spacingRight=4;overflow=hidden;rotatable=0;points=[[0,0.5],[1,0.5]];portConstraint=eastwest;" vertex="1" parent="aaVzcD2_fwo34WTeyBTf-85">
          <mxGeometry y="88" width="210" height="30" as="geometry" />
        </mxCell>
        <mxCell id="aaVzcD2_fwo34WTeyBTf-95" value="Delete(T[], id): T[]" style="text;align=left;verticalAlign=top;spacingLeft=4;spacingRight=4;overflow=hidden;rotatable=0;points=[[0,0.5],[1,0.5]];portConstraint=eastwest;" vertex="1" parent="aaVzcD2_fwo34WTeyBTf-85">
          <mxGeometry y="118" width="210" height="30" as="geometry" />
        </mxCell>
        <mxCell id="aaVzcD2_fwo34WTeyBTf-104" value="" style="endArrow=block;endFill=0;endSize=12;html=1;rounded=0;entryX=0.5;entryY=1;entryDx=0;entryDy=0;exitX=0.5;exitY=0;exitDx=0;exitDy=0;" edge="1" parent="WIyWlLk6GJQsqaUBKTNV-1" source="aaVzcD2_fwo34WTeyBTf-33" target="aaVzcD2_fwo34WTeyBTf-85">
          <mxGeometry width="160" relative="1" as="geometry">
            <mxPoint x="-310" y="750" as="sourcePoint" />
            <mxPoint x="-150" y="750" as="targetPoint" />
          </mxGeometry>
        </mxCell>
        <mxCell id="aaVzcD2_fwo34WTeyBTf-105" value="" style="endArrow=classic;html=1;rounded=0;entryX=0.5;entryY=1;entryDx=0;entryDy=0;" edge="1" parent="WIyWlLk6GJQsqaUBKTNV-1" target="aaVzcD2_fwo34WTeyBTf-33">
          <mxGeometry width="50" height="50" relative="1" as="geometry">
            <mxPoint x="-170" y="1107" as="sourcePoint" />
            <mxPoint x="-120" y="1057" as="targetPoint" />
            <Array as="points">
              <mxPoint x="-170" y="1080" />
              <mxPoint x="-305" y="1080" />
            </Array>
          </mxGeometry>
        </mxCell>
        <mxCell id="aaVzcD2_fwo34WTeyBTf-106" value="" style="endArrow=classic;html=1;rounded=0;exitX=0.5;exitY=0;exitDx=0;exitDy=0;entryX=0.5;entryY=1;entryDx=0;entryDy=0;" edge="1" parent="WIyWlLk6GJQsqaUBKTNV-1" source="aaVzcD2_fwo34WTeyBTf-11" target="aaVzcD2_fwo34WTeyBTf-33">
          <mxGeometry width="50" height="50" relative="1" as="geometry">
            <mxPoint x="-500" y="1090" as="sourcePoint" />
            <mxPoint x="-450" y="1040" as="targetPoint" />
            <Array as="points">
              <mxPoint x="-495" y="1080" />
              <mxPoint x="-305" y="1080" />
            </Array>
          </mxGeometry>
        </mxCell>
        <mxCell id="aaVzcD2_fwo34WTeyBTf-107" value="" style="endArrow=block;endFill=0;endSize=12;html=1;rounded=0;entryX=0.25;entryY=1;entryDx=0;entryDy=0;exitX=0.253;exitY=-0.006;exitDx=0;exitDy=0;exitPerimeter=0;" edge="1" parent="WIyWlLk6GJQsqaUBKTNV-1" source="aaVzcD2_fwo34WTeyBTf-11" target="aaVzcD2_fwo34WTeyBTf-85">
          <mxGeometry width="160" relative="1" as="geometry">
            <mxPoint x="-370" y="760" as="sourcePoint" />
            <mxPoint x="-370" y="678" as="targetPoint" />
            <Array as="points">
              <mxPoint x="-542" y="1040" />
              <mxPoint x="-590" y="1040" />
              <mxPoint x="-590" y="720" />
              <mxPoint x="-357" y="720" />
            </Array>
          </mxGeometry>
        </mxCell>
        <mxCell id="aaVzcD2_fwo34WTeyBTf-108" value="" style="endArrow=block;endFill=0;endSize=12;html=1;rounded=0;exitX=0.5;exitY=0;exitDx=0;exitDy=0;entryX=0.75;entryY=1;entryDx=0;entryDy=0;" edge="1" parent="WIyWlLk6GJQsqaUBKTNV-1" target="aaVzcD2_fwo34WTeyBTf-85">
          <mxGeometry width="160" relative="1" as="geometry">
            <mxPoint x="-120" y="1107" as="sourcePoint" />
            <mxPoint x="-240" y="680" as="targetPoint" />
            <Array as="points">
              <mxPoint x="-120" y="710" />
              <mxPoint x="-252" y="710" />
            </Array>
          </mxGeometry>
        </mxCell>
        <mxCell id="aaVzcD2_fwo34WTeyBTf-109" value="" style="endArrow=block;endFill=0;endSize=12;html=1;rounded=0;entryX=0;entryY=1;entryDx=0;entryDy=0;exitX=0.25;exitY=0;exitDx=0;exitDy=0;" edge="1" parent="WIyWlLk6GJQsqaUBKTNV-1" source="aaVzcD2_fwo34WTeyBTf-46" target="aaVzcD2_fwo34WTeyBTf-85">
          <mxGeometry width="160" relative="1" as="geometry">
            <mxPoint x="-790" y="668" as="sourcePoint" />
            <mxPoint x="-430" y="680" as="targetPoint" />
            <Array as="points">
              <mxPoint x="-550" y="1440" />
              <mxPoint x="-630" y="1440" />
              <mxPoint x="-630" y="670" />
            </Array>
          </mxGeometry>
        </mxCell>
        <mxCell id="aaVzcD2_fwo34WTeyBTf-110" value="" style="endArrow=block;endFill=0;endSize=12;html=1;rounded=0;entryX=1;entryY=1;entryDx=0;entryDy=0;exitX=0.75;exitY=0;exitDx=0;exitDy=0;" edge="1" parent="WIyWlLk6GJQsqaUBKTNV-1" source="aaVzcD2_fwo34WTeyBTf-64" target="aaVzcD2_fwo34WTeyBTf-85">
          <mxGeometry width="160" relative="1" as="geometry">
            <mxPoint x="-30" y="1462" as="sourcePoint" />
            <mxPoint x="-30" y="1380" as="targetPoint" />
            <Array as="points">
              <mxPoint x="-130" y="1430" />
              <mxPoint x="-20" y="1430" />
              <mxPoint x="-20" y="670" />
            </Array>
          </mxGeometry>
        </mxCell>
        <mxCell id="aaVzcD2_fwo34WTeyBTf-111" value="" style="endArrow=classic;html=1;rounded=0;exitX=0.629;exitY=0.998;exitDx=0;exitDy=0;exitPerimeter=0;entryX=0.75;entryY=0;entryDx=0;entryDy=0;" edge="1" parent="WIyWlLk6GJQsqaUBKTNV-1" source="aaVzcD2_fwo34WTeyBTf-23" target="aaVzcD2_fwo34WTeyBTf-46">
          <mxGeometry width="50" height="50" relative="1" as="geometry">
            <mxPoint x="-450" y="1470" as="sourcePoint" />
            <mxPoint x="-400" y="1420" as="targetPoint" />
          </mxGeometry>
        </mxCell>
        <mxCell id="aaVzcD2_fwo34WTeyBTf-114" value="Interface: RankingTypes" style="swimlane;fontStyle=2;align=center;verticalAlign=top;childLayout=stackLayout;horizontal=1;startSize=26;horizontalStack=0;resizeParent=1;resizeLast=0;collapsible=1;marginBottom=0;rounded=0;shadow=0;strokeWidth=1;" vertex="1" parent="WIyWlLk6GJQsqaUBKTNV-1">
          <mxGeometry x="420" y="980" width="170" height="210" as="geometry">
            <mxRectangle x="230" y="140" width="160" height="26" as="alternateBounds" />
          </mxGeometry>
        </mxCell>
        <mxCell id="aaVzcD2_fwo34WTeyBTf-123" value="GetRiderPosition()" style="text;align=left;verticalAlign=top;spacingLeft=4;spacingRight=4;overflow=hidden;rotatable=0;points=[[0,0.5],[1,0.5]];portConstraint=eastwest;rounded=0;shadow=0;html=0;" vertex="1" parent="aaVzcD2_fwo34WTeyBTf-114">
          <mxGeometry y="26" width="170" height="26" as="geometry" />
        </mxCell>
        <mxCell id="aaVzcD2_fwo34WTeyBTf-124" value="GetNumberOneRider()" style="text;align=left;verticalAlign=top;spacingLeft=4;spacingRight=4;overflow=hidden;rotatable=0;points=[[0,0.5],[1,0.5]];portConstraint=eastwest;rounded=0;shadow=0;html=0;" vertex="1" parent="aaVzcD2_fwo34WTeyBTf-114">
          <mxGeometry y="52" width="170" height="26" as="geometry" />
        </mxCell>
        <mxCell id="aaVzcD2_fwo34WTeyBTf-125" value="GetNumberOneTeam()" style="text;align=left;verticalAlign=top;spacingLeft=4;spacingRight=4;overflow=hidden;rotatable=0;points=[[0,0.5],[1,0.5]];portConstraint=eastwest;rounded=0;shadow=0;html=0;" vertex="1" parent="aaVzcD2_fwo34WTeyBTf-114">
          <mxGeometry y="78" width="170" height="26" as="geometry" />
        </mxCell>
        <mxCell id="aaVzcD2_fwo34WTeyBTf-126" value="GetResultsInStringRider()" style="text;align=left;verticalAlign=top;spacingLeft=4;spacingRight=4;overflow=hidden;rotatable=0;points=[[0,0.5],[1,0.5]];portConstraint=eastwest;rounded=0;shadow=0;html=0;" vertex="1" parent="aaVzcD2_fwo34WTeyBTf-114">
          <mxGeometry y="104" width="170" height="26" as="geometry" />
        </mxCell>
        <mxCell id="aaVzcD2_fwo34WTeyBTf-127" value="GetResultsInStringTeam()" style="text;align=left;verticalAlign=top;spacingLeft=4;spacingRight=4;overflow=hidden;rotatable=0;points=[[0,0.5],[1,0.5]];portConstraint=eastwest;rounded=0;shadow=0;html=0;" vertex="1" parent="aaVzcD2_fwo34WTeyBTf-114">
          <mxGeometry y="130" width="170" height="26" as="geometry" />
        </mxCell>
        <mxCell id="aaVzcD2_fwo34WTeyBTf-128" value="GeneralClassification" style="swimlane;fontStyle=2;align=center;verticalAlign=top;childLayout=stackLayout;horizontal=1;startSize=26;horizontalStack=0;resizeParent=1;resizeLast=0;collapsible=1;marginBottom=0;rounded=0;shadow=0;strokeWidth=1;" vertex="1" parent="WIyWlLk6GJQsqaUBKTNV-1">
          <mxGeometry x="40" y="1280" width="280" height="260" as="geometry">
            <mxRectangle x="230" y="140" width="160" height="26" as="alternateBounds" />
          </mxGeometry>
        </mxCell>
        <mxCell id="aaVzcD2_fwo34WTeyBTf-129" value="Ranking: (Team,Rider,Time: int)[]     *******" style="text;align=left;verticalAlign=top;spacingLeft=4;spacingRight=4;overflow=hidden;rotatable=0;points=[[0,0.5],[1,0.5]];portConstraint=eastwest;" vertex="1" parent="aaVzcD2_fwo34WTeyBTf-128">
          <mxGeometry y="26" width="280" height="26" as="geometry" />
        </mxCell>
        <mxCell id="aaVzcD2_fwo34WTeyBTf-130" value="FastestTime: Dict(Team:Rider) " style="text;align=left;verticalAlign=top;spacingLeft=4;spacingRight=4;overflow=hidden;rotatable=0;points=[[0,0.5],[1,0.5]];portConstraint=eastwest;rounded=0;shadow=0;html=0;" vertex="1" parent="aaVzcD2_fwo34WTeyBTf-128">
          <mxGeometry y="52" width="280" height="26" as="geometry" />
        </mxCell>
        <mxCell id="aaVzcD2_fwo34WTeyBTf-132" value="" style="line;html=1;strokeWidth=1;align=left;verticalAlign=middle;spacingTop=-1;spacingLeft=3;spacingRight=3;rotatable=0;labelPosition=right;points=[];portConstraint=eastwest;" vertex="1" parent="aaVzcD2_fwo34WTeyBTf-128">
          <mxGeometry y="78" width="280" height="12" as="geometry" />
        </mxCell>
        <mxCell id="aaVzcD2_fwo34WTeyBTf-133" value="Getters&amp;Setters" style="text;align=left;verticalAlign=top;spacingLeft=4;spacingRight=4;overflow=hidden;rotatable=0;points=[[0,0.5],[1,0.5]];portConstraint=eastwest;" vertex="1" parent="aaVzcD2_fwo34WTeyBTf-128">
          <mxGeometry y="90" width="280" height="30" as="geometry" />
        </mxCell>
        <mxCell id="aaVzcD2_fwo34WTeyBTf-165" value="GetResultsInStringTeam(Ranking): String" style="text;align=left;verticalAlign=top;spacingLeft=4;spacingRight=4;overflow=hidden;rotatable=0;points=[[0,0.5],[1,0.5]];portConstraint=eastwest;rounded=0;shadow=0;html=0;" vertex="1" parent="aaVzcD2_fwo34WTeyBTf-128">
          <mxGeometry y="120" width="280" height="26" as="geometry" />
        </mxCell>
        <mxCell id="aaVzcD2_fwo34WTeyBTf-164" value="GetResultsInStringRider(Ranking): String" style="text;align=left;verticalAlign=top;spacingLeft=4;spacingRight=4;overflow=hidden;rotatable=0;points=[[0,0.5],[1,0.5]];portConstraint=eastwest;rounded=0;shadow=0;html=0;" vertex="1" parent="aaVzcD2_fwo34WTeyBTf-128">
          <mxGeometry y="146" width="280" height="26" as="geometry" />
        </mxCell>
        <mxCell id="aaVzcD2_fwo34WTeyBTf-163" value="GetNumberOneTeam(Ranking): Team" style="text;align=left;verticalAlign=top;spacingLeft=4;spacingRight=4;overflow=hidden;rotatable=0;points=[[0,0.5],[1,0.5]];portConstraint=eastwest;rounded=0;shadow=0;html=0;" vertex="1" parent="aaVzcD2_fwo34WTeyBTf-128">
          <mxGeometry y="172" width="280" height="26" as="geometry" />
        </mxCell>
        <mxCell id="aaVzcD2_fwo34WTeyBTf-162" value="GetNumberOneRider(Ranking): Rider" style="text;align=left;verticalAlign=top;spacingLeft=4;spacingRight=4;overflow=hidden;rotatable=0;points=[[0,0.5],[1,0.5]];portConstraint=eastwest;rounded=0;shadow=0;html=0;" vertex="1" parent="aaVzcD2_fwo34WTeyBTf-128">
          <mxGeometry y="198" width="280" height="26" as="geometry" />
        </mxCell>
        <mxCell id="aaVzcD2_fwo34WTeyBTf-161" value="GetRiderPosition(Ranking): int" style="text;align=left;verticalAlign=top;spacingLeft=4;spacingRight=4;overflow=hidden;rotatable=0;points=[[0,0.5],[1,0.5]];portConstraint=eastwest;rounded=0;shadow=0;html=0;" vertex="1" parent="aaVzcD2_fwo34WTeyBTf-128">
          <mxGeometry y="224" width="280" height="26" as="geometry" />
        </mxCell>
        <mxCell id="aaVzcD2_fwo34WTeyBTf-166" value="" style="endArrow=block;endFill=0;endSize=12;html=1;rounded=0;entryX=1;entryY=0.5;entryDx=0;entryDy=0;exitX=0.5;exitY=0;exitDx=0;exitDy=0;" edge="1" parent="WIyWlLk6GJQsqaUBKTNV-1" source="aaVzcD2_fwo34WTeyBTf-128" target="aaVzcD2_fwo34WTeyBTf-95">
          <mxGeometry width="160" relative="1" as="geometry">
            <mxPoint x="179.38" y="1251" as="sourcePoint" />
            <mxPoint x="179.38" y="1169" as="targetPoint" />
            <Array as="points">
              <mxPoint x="180" y="1210" />
              <mxPoint x="40" y="1210" />
              <mxPoint x="20" y="530" />
            </Array>
          </mxGeometry>
        </mxCell>
        <mxCell id="aaVzcD2_fwo34WTeyBTf-167" value="PointsClassification(sprints)&#xa;" style="swimlane;fontStyle=2;align=center;verticalAlign=top;childLayout=stackLayout;horizontal=1;startSize=26;horizontalStack=0;resizeParent=1;resizeLast=0;collapsible=1;marginBottom=0;rounded=0;shadow=0;strokeWidth=1;" vertex="1" parent="WIyWlLk6GJQsqaUBKTNV-1">
          <mxGeometry x="360" y="1280" width="280" height="260" as="geometry">
            <mxRectangle x="230" y="140" width="160" height="26" as="alternateBounds" />
          </mxGeometry>
        </mxCell>
        <mxCell id="aaVzcD2_fwo34WTeyBTf-168" value="Ranking: (Team,Rider,Placement: int)[]     *******" style="text;align=left;verticalAlign=top;spacingLeft=4;spacingRight=4;overflow=hidden;rotatable=0;points=[[0,0.5],[1,0.5]];portConstraint=eastwest;" vertex="1" parent="aaVzcD2_fwo34WTeyBTf-167">
          <mxGeometry y="26" width="280" height="26" as="geometry" />
        </mxCell>
        <mxCell id="aaVzcD2_fwo34WTeyBTf-169" value="BestRanking: Dict(Team:Rider) " style="text;align=left;verticalAlign=top;spacingLeft=4;spacingRight=4;overflow=hidden;rotatable=0;points=[[0,0.5],[1,0.5]];portConstraint=eastwest;rounded=0;shadow=0;html=0;" vertex="1" parent="aaVzcD2_fwo34WTeyBTf-167">
          <mxGeometry y="52" width="280" height="26" as="geometry" />
        </mxCell>
        <mxCell id="aaVzcD2_fwo34WTeyBTf-170" value="" style="line;html=1;strokeWidth=1;align=left;verticalAlign=middle;spacingTop=-1;spacingLeft=3;spacingRight=3;rotatable=0;labelPosition=right;points=[];portConstraint=eastwest;" vertex="1" parent="aaVzcD2_fwo34WTeyBTf-167">
          <mxGeometry y="78" width="280" height="12" as="geometry" />
        </mxCell>
        <mxCell id="aaVzcD2_fwo34WTeyBTf-171" value="Getters&amp;Setters" style="text;align=left;verticalAlign=top;spacingLeft=4;spacingRight=4;overflow=hidden;rotatable=0;points=[[0,0.5],[1,0.5]];portConstraint=eastwest;" vertex="1" parent="aaVzcD2_fwo34WTeyBTf-167">
          <mxGeometry y="90" width="280" height="30" as="geometry" />
        </mxCell>
        <mxCell id="aaVzcD2_fwo34WTeyBTf-172" value="GetResultsInStringTeam(Ranking): String" style="text;align=left;verticalAlign=top;spacingLeft=4;spacingRight=4;overflow=hidden;rotatable=0;points=[[0,0.5],[1,0.5]];portConstraint=eastwest;rounded=0;shadow=0;html=0;" vertex="1" parent="aaVzcD2_fwo34WTeyBTf-167">
          <mxGeometry y="120" width="280" height="26" as="geometry" />
        </mxCell>
        <mxCell id="aaVzcD2_fwo34WTeyBTf-173" value="GetResultsInStringRider(Ranking): String" style="text;align=left;verticalAlign=top;spacingLeft=4;spacingRight=4;overflow=hidden;rotatable=0;points=[[0,0.5],[1,0.5]];portConstraint=eastwest;rounded=0;shadow=0;html=0;" vertex="1" parent="aaVzcD2_fwo34WTeyBTf-167">
          <mxGeometry y="146" width="280" height="26" as="geometry" />
        </mxCell>
        <mxCell id="aaVzcD2_fwo34WTeyBTf-174" value="GetNumberOneTeam(Ranking): Team" style="text;align=left;verticalAlign=top;spacingLeft=4;spacingRight=4;overflow=hidden;rotatable=0;points=[[0,0.5],[1,0.5]];portConstraint=eastwest;rounded=0;shadow=0;html=0;" vertex="1" parent="aaVzcD2_fwo34WTeyBTf-167">
          <mxGeometry y="172" width="280" height="26" as="geometry" />
        </mxCell>
        <mxCell id="aaVzcD2_fwo34WTeyBTf-175" value="GetNumberOneRider(Ranking): Rider" style="text;align=left;verticalAlign=top;spacingLeft=4;spacingRight=4;overflow=hidden;rotatable=0;points=[[0,0.5],[1,0.5]];portConstraint=eastwest;rounded=0;shadow=0;html=0;" vertex="1" parent="aaVzcD2_fwo34WTeyBTf-167">
          <mxGeometry y="198" width="280" height="26" as="geometry" />
        </mxCell>
        <mxCell id="aaVzcD2_fwo34WTeyBTf-176" value="GetRiderPosition(Ranking): int" style="text;align=left;verticalAlign=top;spacingLeft=4;spacingRight=4;overflow=hidden;rotatable=0;points=[[0,0.5],[1,0.5]];portConstraint=eastwest;rounded=0;shadow=0;html=0;" vertex="1" parent="aaVzcD2_fwo34WTeyBTf-167">
          <mxGeometry y="224" width="280" height="26" as="geometry" />
        </mxCell>
        <mxCell id="aaVzcD2_fwo34WTeyBTf-177" value="MountainClassification" style="swimlane;fontStyle=2;align=center;verticalAlign=top;childLayout=stackLayout;horizontal=1;startSize=26;horizontalStack=0;resizeParent=1;resizeLast=0;collapsible=1;marginBottom=0;rounded=0;shadow=0;strokeWidth=1;" vertex="1" parent="WIyWlLk6GJQsqaUBKTNV-1">
          <mxGeometry x="680" y="1280" width="280" height="260" as="geometry">
            <mxRectangle x="230" y="140" width="160" height="26" as="alternateBounds" />
          </mxGeometry>
        </mxCell>
        <mxCell id="aaVzcD2_fwo34WTeyBTf-178" value="Ranking: (Team,Rider,Placement: int)[]     *******" style="text;align=left;verticalAlign=top;spacingLeft=4;spacingRight=4;overflow=hidden;rotatable=0;points=[[0,0.5],[1,0.5]];portConstraint=eastwest;" vertex="1" parent="aaVzcD2_fwo34WTeyBTf-177">
          <mxGeometry y="26" width="280" height="26" as="geometry" />
        </mxCell>
        <mxCell id="aaVzcD2_fwo34WTeyBTf-179" value="BestRanking: Dict(Team:Rider) " style="text;align=left;verticalAlign=top;spacingLeft=4;spacingRight=4;overflow=hidden;rotatable=0;points=[[0,0.5],[1,0.5]];portConstraint=eastwest;rounded=0;shadow=0;html=0;" vertex="1" parent="aaVzcD2_fwo34WTeyBTf-177">
          <mxGeometry y="52" width="280" height="26" as="geometry" />
        </mxCell>
        <mxCell id="aaVzcD2_fwo34WTeyBTf-180" value="" style="line;html=1;strokeWidth=1;align=left;verticalAlign=middle;spacingTop=-1;spacingLeft=3;spacingRight=3;rotatable=0;labelPosition=right;points=[];portConstraint=eastwest;" vertex="1" parent="aaVzcD2_fwo34WTeyBTf-177">
          <mxGeometry y="78" width="280" height="12" as="geometry" />
        </mxCell>
        <mxCell id="aaVzcD2_fwo34WTeyBTf-181" value="Getters&amp;Setters" style="text;align=left;verticalAlign=top;spacingLeft=4;spacingRight=4;overflow=hidden;rotatable=0;points=[[0,0.5],[1,0.5]];portConstraint=eastwest;" vertex="1" parent="aaVzcD2_fwo34WTeyBTf-177">
          <mxGeometry y="90" width="280" height="30" as="geometry" />
        </mxCell>
        <mxCell id="aaVzcD2_fwo34WTeyBTf-182" value="GetResultsInStringTeam(Ranking): String" style="text;align=left;verticalAlign=top;spacingLeft=4;spacingRight=4;overflow=hidden;rotatable=0;points=[[0,0.5],[1,0.5]];portConstraint=eastwest;rounded=0;shadow=0;html=0;" vertex="1" parent="aaVzcD2_fwo34WTeyBTf-177">
          <mxGeometry y="120" width="280" height="26" as="geometry" />
        </mxCell>
        <mxCell id="aaVzcD2_fwo34WTeyBTf-183" value="GetResultsInStringRider(Ranking): String" style="text;align=left;verticalAlign=top;spacingLeft=4;spacingRight=4;overflow=hidden;rotatable=0;points=[[0,0.5],[1,0.5]];portConstraint=eastwest;rounded=0;shadow=0;html=0;" vertex="1" parent="aaVzcD2_fwo34WTeyBTf-177">
          <mxGeometry y="146" width="280" height="26" as="geometry" />
        </mxCell>
        <mxCell id="aaVzcD2_fwo34WTeyBTf-184" value="GetNumberOneTeam(Ranking): Team" style="text;align=left;verticalAlign=top;spacingLeft=4;spacingRight=4;overflow=hidden;rotatable=0;points=[[0,0.5],[1,0.5]];portConstraint=eastwest;rounded=0;shadow=0;html=0;" vertex="1" parent="aaVzcD2_fwo34WTeyBTf-177">
          <mxGeometry y="172" width="280" height="26" as="geometry" />
        </mxCell>
        <mxCell id="aaVzcD2_fwo34WTeyBTf-185" value="GetNumberOneRider(Ranking): Rider" style="text;align=left;verticalAlign=top;spacingLeft=4;spacingRight=4;overflow=hidden;rotatable=0;points=[[0,0.5],[1,0.5]];portConstraint=eastwest;rounded=0;shadow=0;html=0;" vertex="1" parent="aaVzcD2_fwo34WTeyBTf-177">
          <mxGeometry y="198" width="280" height="26" as="geometry" />
        </mxCell>
        <mxCell id="aaVzcD2_fwo34WTeyBTf-186" value="GetRiderPosition(Ranking): int" style="text;align=left;verticalAlign=top;spacingLeft=4;spacingRight=4;overflow=hidden;rotatable=0;points=[[0,0.5],[1,0.5]];portConstraint=eastwest;rounded=0;shadow=0;html=0;" vertex="1" parent="aaVzcD2_fwo34WTeyBTf-177">
          <mxGeometry y="224" width="280" height="26" as="geometry" />
        </mxCell>
        <mxCell id="aaVzcD2_fwo34WTeyBTf-187" value="" style="endArrow=classic;html=1;rounded=0;exitX=0.25;exitY=0;exitDx=0;exitDy=0;" edge="1" parent="WIyWlLk6GJQsqaUBKTNV-1" source="aaVzcD2_fwo34WTeyBTf-128">
          <mxGeometry width="50" height="50" relative="1" as="geometry">
            <mxPoint x="50" y="1150" as="sourcePoint" />
            <mxPoint x="-90" y="1170" as="targetPoint" />
            <Array as="points" />
          </mxGeometry>
        </mxCell>
        <mxCell id="aaVzcD2_fwo34WTeyBTf-188" value="" style="endArrow=classic;html=1;rounded=0;exitX=0.25;exitY=0;exitDx=0;exitDy=0;entryX=1;entryY=0.5;entryDx=0;entryDy=0;" edge="1" parent="WIyWlLk6GJQsqaUBKTNV-1" source="aaVzcD2_fwo34WTeyBTf-167" target="aaVzcD2_fwo34WTeyBTf-58">
          <mxGeometry width="50" height="50" relative="1" as="geometry">
            <mxPoint x="510" y="1280" as="sourcePoint" />
            <mxPoint x="310" y="1170" as="targetPoint" />
            <Array as="points" />
          </mxGeometry>
        </mxCell>
        <mxCell id="aaVzcD2_fwo34WTeyBTf-189" value="" style="endArrow=classic;html=1;rounded=0;exitX=0.5;exitY=1;exitDx=0;exitDy=0;entryX=1;entryY=0.5;entryDx=0;entryDy=0;" edge="1" parent="WIyWlLk6GJQsqaUBKTNV-1" source="aaVzcD2_fwo34WTeyBTf-177" target="aaVzcD2_fwo34WTeyBTf-99">
          <mxGeometry width="50" height="50" relative="1" as="geometry">
            <mxPoint x="1060" y="1600" as="sourcePoint" />
            <mxPoint x="-90" y="1550" as="targetPoint" />
            <Array as="points">
              <mxPoint x="820" y="1560" />
            </Array>
          </mxGeometry>
        </mxCell>
        <mxCell id="aaVzcD2_fwo34WTeyBTf-191" value="" style="endArrow=classic;html=1;rounded=0;dashed=1;entryX=0.75;entryY=1;entryDx=0;entryDy=0;exitX=0.5;exitY=0;exitDx=0;exitDy=0;" edge="1" parent="WIyWlLk6GJQsqaUBKTNV-1" source="aaVzcD2_fwo34WTeyBTf-177" target="aaVzcD2_fwo34WTeyBTf-114">
          <mxGeometry width="50" height="50" relative="1" as="geometry">
            <mxPoint x="700" y="1180" as="sourcePoint" />
            <mxPoint x="760" y="1180" as="targetPoint" />
            <Array as="points">
              <mxPoint x="820" y="1230" />
              <mxPoint x="548" y="1230" />
            </Array>
          </mxGeometry>
        </mxCell>
        <mxCell id="aaVzcD2_fwo34WTeyBTf-192" value="" style="endArrow=classic;html=1;rounded=0;dashed=1;exitX=0.5;exitY=0;exitDx=0;exitDy=0;" edge="1" parent="WIyWlLk6GJQsqaUBKTNV-1" source="aaVzcD2_fwo34WTeyBTf-167">
          <mxGeometry width="50" height="50" relative="1" as="geometry">
            <mxPoint x="460" y="1230" as="sourcePoint" />
            <mxPoint x="500" y="1190" as="targetPoint" />
          </mxGeometry>
        </mxCell>
        <mxCell id="aaVzcD2_fwo34WTeyBTf-193" value="" style="endArrow=classic;html=1;rounded=0;dashed=1;exitX=0.75;exitY=0;exitDx=0;exitDy=0;" edge="1" parent="WIyWlLk6GJQsqaUBKTNV-1" source="aaVzcD2_fwo34WTeyBTf-128">
          <mxGeometry width="50" height="50" relative="1" as="geometry">
            <mxPoint x="270" y="1210" as="sourcePoint" />
            <mxPoint x="450" y="1190" as="targetPoint" />
            <Array as="points">
              <mxPoint x="250" y="1230" />
              <mxPoint x="450" y="1230" />
            </Array>
          </mxGeometry>
        </mxCell>
      </root>
    </mxGraphModel>
  </diagram>
</mxfile>
